<svg version="1" xmlns="http://www.w3.org/2000/svg" width="1333.333" height="1333.333" viewBox="0 0 1000.000000 1000.000000"><path d="M260.5.7c-39.2 1.9-73.7 10.9-109 28.3-28.1 13.9-51.3 30.8-74 54.1C34.8 127 8.9 181.9 1.8 244c-1.9 16.9-1.9 495.1 0 512 5.8 50.2 23.6 95.4 53.6 135.5 11.6 15.6 37.2 41.2 52.8 52.8C147.8 973.9 190 991 240 997.7c12.7 1.7 27.8 1.8 260 1.8s247.3-.1 260-1.8c49.8-6.7 92.3-23.8 131.5-53.1 15.7-11.7 41.2-37.2 53.1-53.1 27.5-36.7 45.3-79 51.9-123.2 3.4-23.1 3.6-40.8 3.3-280.8-.4-216.8-.6-238-2.1-248.5-5-34-12.4-58.2-26.2-86.5-13-26.7-27.6-47.4-49-69.4-43.6-44.9-96.7-71.5-161.1-80.8C750.4.8 730.5.6 508 .5 375.2.4 263.8.5 260.5.7zm271 164.8c11.2 3.3 20.7 13.2 24.1 24.9 4.5 16-3.8 34.1-19.1 41.6l-5 2.5h-353l-4.7-2.3c-15.8-7.8-24.2-26-19.5-42.3 3.2-11 13-21.1 23.6-24.3 7-2.2 346.4-2.3 353.6-.1zm198.7 144c11.8 5.1 19.4 13.7 22.4 25.5 4.1 16.2-4.6 34-20.3 41.3l-4.8 2.2h-548l-5.7-2.7c-7.3-3.4-14.2-10.3-17.6-17.6-2.3-4.9-2.7-7-2.7-14.7 0-7.7.4-9.8 2.7-14.7 5-10.8 14.7-18.5 25.8-20.7 2.6-.5 122.3-.8 274-.7 267.3.1 269.5.1 274.2 2.1zM856 453.1c7.8 3.7 13.1 8.8 17 16.1 2.8 5.3 3.5 7.6 3.8 14.3.5 9.5-.6 14.1-5 21.5-4.2 6.9-11.5 12.5-19.8 15-6.4 2-9.4 2-339 1.8l-332.5-.3-6.5-3.1c-7.8-3.7-14.1-9.9-17.8-17.4-2.4-4.8-2.7-6.7-2.7-15s.3-10.2 2.7-15c3.1-6.4 10.4-14.1 15.7-16.6 9.1-4.4-4.2-4.3 345.6-4.1l333 .2 5.5 2.6zM404.2 606.8c8 3.2 15 9.9 19 18 3 6.1 3.3 7.5 3.3 15.7-.1 7.7-.5 9.8-2.9 14.7-3.5 7.3-10 13.9-17.4 17.5l-5.7 2.8h-221l-5.7-2.8c-7.3-3.6-13.9-10.1-17.5-17.5-2.4-5-2.8-6.9-2.8-14.7 0-7.6.4-9.9 2.6-14.6 3.2-6.8 8.8-13.1 14.3-16.4 9.5-5.6 6.2-5.4 121.6-5.2l106.5.2 5.7 2.3zm169.5 146.6c7.4 3.4 15.3 11.2 18.5 18.3 3.1 6.9 3.1 21.7 0 28.6-3.2 7.1-11.1 14.9-18.5 18.3l-6.2 2.9h-387l-6.5-3.1c-7.8-3.7-14.1-9.9-17.8-17.4-2.4-4.8-2.7-6.7-2.7-15s.3-10.2 2.7-15c3.1-6.4 10.4-14.1 15.7-16.6 9-4.4 3.3-4.3 204.1-4.1l191.5.2 6.2 2.9z"/></svg>